<?xml version="1.0" encoding="UTF-8"?>
<svg width="151px" height="129px" viewBox="0 0 151 129" version="1.1" xmlns="http://www.w3.org/2000/svg" xmlns:xlink="http://www.w3.org/1999/xlink">
    <!-- Generator: Sketch 60.1 (88133) - https://sketch.com -->
    <title>Bike</title>
    <desc>Created with Sketch.</desc>
    <defs>
        <linearGradient x1="50%" y1="0%" x2="50%" y2="100%" id="linearGradient-1">
            <stop stop-color="#000000" offset="0%"></stop>
            <stop stop-color="#000000" offset="100%"></stop>
        </linearGradient>
    </defs>
    <g id="Page-1" stroke="none" stroke-width="1" fill="none" fill-rule="evenodd">
        <g id="Bike" transform="translate(0.000000, -6.000000)">
            <g transform="translate(0.000000, 17.307692)">
                <g id="Misc" transform="translate(0.237244, 0.366232)">
                    <circle id="Oval-Copy-2" fill="#0B70E4" cx="123.257125" cy="1.30484294" r="1.30484294"></circle>
                    <circle id="Oval-Copy-3" fill="#0B70E4" cx="14.3532724" cy="44.246038" r="1.30484294"></circle>
                    <circle id="Oval-Copy-4" fill="#BFC5D2" cx="3.20279632" cy="88.373454" r="1.30484294"></circle>
                    <path d="M5.69386012,24.3258387 C6.08693913,24.3258387 6.40559264,24.6444922 6.40559264,25.0375712 L6.40495337,27.4098387 L8.77803435,27.4100129 C9.17111337,27.4100129 9.48976687,27.7286664 9.48976687,28.1217454 C9.48976687,28.5148245 9.17111337,28.833478 8.77803435,28.833478 L6.40495337,28.8328387 L6.40559264,31.2059197 C6.40559264,31.5989987 6.08693913,31.9176522 5.69386012,31.9176522 C5.30078111,31.9176522 4.98212761,31.5989987 4.98212761,31.2059197 L4.98195337,28.8328387 L2.60968589,28.833478 C2.21660687,28.833478 1.89795337,28.5148245 1.89795337,28.1217454 C1.89795337,27.7286664 2.21660687,27.4100129 2.60968589,27.4100129 L4.98195337,27.4098387 L4.98212761,25.0375712 C4.98212761,24.6444922 5.30078111,24.3258387 5.69386012,24.3258387 Z" id="Combined-Shape" fill="#FE0000" transform="translate(5.693860, 28.121745) rotate(-315.000000) translate(-5.693860, -28.121745) "></path>
                    <path d="M137.838864,2.60968589 C138.231943,2.60968589 138.550596,2.92833939 138.550596,3.3214184 L138.549957,5.69368589 L140.923038,5.69386012 C141.316117,5.69386012 141.634771,6.01251362 141.634771,6.40559264 C141.634771,6.79867165 141.316117,7.11732515 140.923038,7.11732515 L138.549957,7.11668589 L138.550596,9.48976687 C138.550596,9.88284588 138.231943,10.2014994 137.838864,10.2014994 C137.445785,10.2014994 137.127131,9.88284588 137.127131,9.48976687 L137.126957,7.11668589 L134.75469,7.11732515 C134.361611,7.11732515 134.042957,6.79867165 134.042957,6.40559264 C134.042957,6.01251362 134.361611,5.69386012 134.75469,5.69386012 L137.126957,5.69368589 L137.127131,3.3214184 C137.127131,2.92833939 137.445785,2.60968589 137.838864,2.60968589 Z" id="Combined-Shape-Copy" fill="#FE0000" transform="translate(137.838864, 6.405593) rotate(-315.000000) translate(-137.838864, -6.405593) "></path>
                    <path d="M125.32852,51.6697251 C125.721599,51.6697251 126.040252,51.9883786 126.040252,52.3814577 L126.039613,54.7537251 L128.412694,54.7538994 C128.805773,54.7538994 129.124427,55.0725529 129.124427,55.4656319 C129.124427,55.8587109 128.805773,56.1773644 128.412694,56.1773644 L126.039613,56.1767251 L126.040252,58.5498061 C126.040252,58.9428851 125.721599,59.2615386 125.32852,59.2615386 C124.935441,59.2615386 124.616787,58.9428851 124.616787,58.5498061 L124.616613,56.1767251 L122.244346,56.1773644 C121.851267,56.1773644 121.532613,55.8587109 121.532613,55.4656319 C121.532613,55.0725529 121.851267,54.7538994 122.244346,54.7538994 L124.616613,54.7537251 L124.616787,52.3814577 C124.616787,51.9883786 124.935441,51.6697251 125.32852,51.6697251 Z" id="Combined-Shape-Copy-2" fill="#BFC5D2" transform="translate(125.328520, 55.465632) rotate(-315.000000) translate(-125.328520, -55.465632) "></path>
                </g>
                <g transform="translate(73.292377, 62.882335) rotate(-7.000000) translate(-73.292377, -62.882335) translate(52.523147, 35.190027)"></g>
            </g>
            <path d="M39.1010544,74.6734609 L41.4631537,77.7702733 L38.3483718,104.625458 C39.9756074,105.573945 41.0426897,106.418859 41.5496188,107.160201 C42.0565478,107.901542 41.8482096,108.582842 40.9246039,109.2041 L30.5407546,110.84874 C30.4634475,109.676898 30.8255268,108.447385 31.6269926,107.160201 C32.4284584,105.873016 33.515072,105.014768 34.8868333,104.585456 L39.1010544,74.6734609 Z" id="Rectangle" fill="#000000" transform="translate(36.174814, 92.761101) rotate(9.000000) translate(-36.174814, -92.761101) "></path>
            <g id="Tyer" transform="translate(109.615385, 57.692308)">
                <path d="M31.2374197,43.7205133 C32.9380722,45.7976736 33.7528769,49.3322653 31.5545462,53.9622521 C33.1549237,54.012962 33.7474437,54.5100992 34.7486606,55.0579078 C34.9738363,49.5025054 33.7431819,45.5410561 31.2374197,43.7205133 Z" id="Path-6-Copy-7" fill="#9D9E9F" transform="translate(33.006143, 49.389211) rotate(-90.000000) translate(-33.006143, -49.389211) "></path>
                <path d="M15.9057021,2.84217094e-12 C9.17111975,2.84217094e-12 3.59103728,5.42136598 3.59103728,11.9643939 L3.69204548,37.2641915 C3.59193832,43.8822804 -1.04264231,41.8045066 2.32853816,49.3892106 C4.09669331,50.5624161 11.1486925,52.0410393 15.0240976,52.0410393 C18.4093317,52.0410393 25.097718,55.0276447 27.3374456,52.8340971 C29.5534304,50.6638026 28.164324,46.2861858 28.2203668,40.3798294 L28.2203668,11.9643939 C28.2203668,5.42136598 22.6402843,2.84217094e-12 15.9057021,2.84217094e-12 Z" id="Path" fill="url(#linearGradient-1)"></path>
                <path d="M14.3548577,4.70694252 C12.7699869,5.04066448 11.4536098,5.78929116 10.4057264,6.95282256 C9.35784296,8.11635396 8.58347756,9.4584698 8.08263018,10.9791701" id="Path-5-Copy" stroke="#FFFFFF" stroke-linecap="round"></path>
                <path d="M16.5038174,36.9472071 C14.4056717,37.4268766 12.6629738,38.5029023 11.2757237,40.1752842 C9.88847358,41.847666 8.86332284,43.7767332 8.20027144,45.9624856" id="Path-5-Copy-3" stroke="#FFFFFF" stroke-linecap="round" transform="translate(12.352044, 41.454846) rotate(52.000000) translate(-12.352044, -41.454846) "></path>
            </g>
            <g id="Bike-Body" transform="translate(70.577712, 73.755962) rotate(-6.000000) translate(-70.577712, -73.755962) translate(41.154635, 43.179039)">
                <path d="M58.8146091,14.2870982 L58.8146091,55.9755331 C58.8146091,58.218857 56.8904428,60.2752372 54.3890265,60.2752372 L45.7302778,60.2752372 L45.7302778,60.2752372 L45.7302778,31.8598017 C45.7302778,23.2603936 38.4184456,16.1565347 29.5672803,16.1565347 C20.716115,16.1565347 13.4042828,23.2603936 13.4042828,31.8598017 L13.4042828,60.2752372 L13.4042828,60.2752372 L4.5531175,60.2752372 C2.24411785,60.2752372 0.127534846,58.4058007 0.127534846,55.9755331 L0.127534846,14.2870982 C0.127534846,6.62240836 6.47728387,0.453267758 14.366366,0.453267758 L44.1909447,0.453267758 C52.4648601,0.453267758 58.8146091,6.62240836 58.8146091,14.2870982 Z" id="Path" fill="#000000"></path>
                <path d="M11.3665107,5.32957843 C9.78163993,5.66330039 8.46526282,6.41192707 7.41737939,7.57545847 C6.36949596,8.73898987 5.59513056,10.0811057 5.09428318,11.601806" id="Path-5" stroke="#FFFFFF" stroke-linecap="round"></path>
            </g>
            <g id="Manubrio" transform="translate(63.623740, 24.230769) rotate(-7.000000) translate(-63.623740, -24.230769) translate(15.739125, 5.769231)">
                <path d="M48.2834694,1.04661179 C56.3649682,1.04661179 63.2919671,6.28103411 65.7933834,13.384893 L72.5279657,10.3937945 C73.1052156,10.2068509 73.4900488,10.0199072 74.0672988,10.0199072 L91.1913735,9.98453956 C93.5003732,9.79759591 95.2321229,11.4800888 95.2321229,13.536469 C95.2321229,15.5928492 93.5003732,17.2753421 91.3837902,17.2753421 L75.0293819,17.3107097 L66.7554666,21.0495828 C65.6009667,29.8359346 57.9043012,36.7528498 48.475886,36.7528498 C38.8550542,36.7528498 30.7735554,29.4620473 30.0038889,20.3018082 L21.7299735,16.5629351 L4.2190536,16.5275675 C2.10247059,16.5275675 0.370720858,14.8450746 0.370720858,12.7886944 C0.370720858,10.7323142 2.10247059,9.04982129 4.2190536,9.04982129 L22.49964,9.08518893 C23.0768899,9.08518893 23.6541399,9.27213259 24.0389731,9.45907624 L30.9659721,12.6371184 C33.659805,5.90714681 40.3943873,1.04661179 48.2834694,1.04661179 Z M48.475886,8.33741431 C42.5109703,8.33741431 37.7005544,13.0110057 37.7005544,18.806259 C37.7005544,24.6015123 42.5109703,29.2751036 48.475886,29.2751036 C54.4408018,29.2751036 59.2512177,24.6015123 59.2512177,18.806259 C59.2512177,13.0110057 54.4408018,8.33741431 48.475886,8.33741431 Z" id="Combined-Shape" fill="#000000"></path>
                <path d="M48.3264129,8.03335498 C50.2332102,8.03335498 52.0240142,8.52998152 53.5765342,9.40094397 L53.7730061,9.39895557 C47.8380437,9.39895557 43.026806,14.2101932 43.026806,20.1451557 C43.026806,24.1733208 45.2431409,27.6838332 48.5228848,29.5237668 L48.3264129,29.5257552 C42.3914505,29.5257552 37.5802128,24.7145175 37.5802128,18.7795551 C37.5802128,12.8445926 42.3914505,8.03335498 48.3264129,8.03335498 Z" id="Combined-Shape" fill-opacity="0.101425918" fill="#000000"></path>
                <path d="M41.8040395,6.66775438 C40.2191687,7.00147634 38.9027916,7.75010302 37.8549081,8.91363441 C36.8070247,10.0771658 36.0326593,11.4192817 35.5318119,12.9399819" id="Path-5-Copy-2" stroke="#FFFFFF" stroke-linecap="round"></path>
            </g>
            <g id="Land" transform="translate(1.423465, 100.208153)">
                <g id="Group" transform="translate(0.000000, 13.908430)" fill="#E7E7E7" fill-rule="nonzero">
                    <path d="M15.9662943,12.2021144 C16.9135484,12.0740071 17.785301,12.7380568 17.9134082,13.6853108 C18.0415155,14.6325649 17.3774659,15.5043175 16.4302118,15.6324248 C11.3384991,16.3210315 6.21719271,17.537963 1.06524534,19.2843803 C0.159966131,19.5912537 -0.822677667,19.1061499 -1.12955101,18.2008707 C-1.43642435,17.2955914 -0.951320544,16.3129476 -0.0460413305,16.0060743 C5.31347066,14.1892963 10.651265,12.9209226 15.9662943,12.2021144 Z" id="Path-3" transform="translate(8.353794, 15.781382) rotate(-9.000000) translate(-8.353794, -15.781382) "></path>
                    <path d="M108.678134,1.00779401 C109.622968,0.862912919 110.506356,1.51140283 110.651237,2.45623677 C110.796118,3.4010707 110.147629,4.28445928 109.202795,4.42934038 C104.115992,5.20935212 98.989659,6.52052113 93.8228919,8.36408503 C92.9226077,8.68531713 91.932373,8.21590265 91.6111409,7.31561845 C91.2899088,6.41533425 91.7593233,5.42509964 92.6596075,5.10386754 C98.0305086,3.18746621 103.370319,1.82169583 108.678134,1.00779401 Z" id="Path-3-Copy-3" transform="translate(101.090742, 4.726386) rotate(21.000000) translate(-101.090742, -4.726386) "></path>
                    <path d="M146.98644,11.3643387 C147.930279,11.2131128 148.818005,11.855653 148.96923,12.7994922 C149.120456,13.7433314 148.477916,14.631057 147.534077,14.7822828 C142.481578,15.591815 137.386858,16.9364781 132.249035,18.8175782 C131.351428,19.1462171 130.357359,18.6849774 130.02872,17.7873705 C129.700081,16.8897636 130.161321,15.8956949 131.058928,15.5670561 C136.40176,13.6108966 141.711224,12.2095555 146.98644,11.3643387 Z" id="Path-3-Copy-5" transform="translate(139.457013, 15.132921) rotate(35.000000) translate(-139.457013, -15.132921) "></path>
                    <path d="M84.7777024,0.192180401 C85.6936941,-0.0810611457 86.6577581,0.439990789 86.9309997,1.35598247 C87.2042412,2.27197415 86.6831893,3.23603816 85.7671976,3.50927971 C84.3324334,3.93727181 82.862454,4.67585564 81.3581114,5.73348673 C80.5761489,6.28324702 79.4965743,6.09500996 78.946814,5.31304748 C78.3970537,4.531085 78.5852908,3.45151038 79.3672532,2.90175009 C81.16469,1.63805856 82.9678891,0.732050153 84.7777024,0.192180401 Z" id="Path-3-Copy-4" transform="translate(82.817721, 3.084020) rotate(-331.000000) translate(-82.817721, -3.084020) "></path>
                    <path d="M59.8373599,0.674399878 C60.7879131,0.573650785 61.640162,1.2625531 61.740911,2.21310627 C61.8416601,3.16365943 61.1527578,4.01590831 60.2022047,4.1166574 C48.1947829,5.38932356 36.1332846,8.13927562 24.0157904,12.3683659 C23.1132984,12.6833419 22.1263456,12.2070661 21.8113695,11.3045741 C21.4963935,10.4020821 21.9726693,9.41512927 22.8751613,9.10015324 C35.2400199,4.78473108 47.5613925,1.97552919 59.8373599,0.674399878 Z" id="Path-3-Copy" transform="translate(41.732464, 6.565059) rotate(4.000000) translate(-41.732464, -6.565059) "></path>
                </g>
                <path d="M9.42061529,5.27598136 C9.60992448,6.95830104 11.1769705,11.1402256 9.42061529,14.8393513 C10.6992361,14.8798659 11.1726297,15.2770535 11.9725515,15.7147249 C12.1524555,11.2762388 10.5559881,7.84552209 9.42061529,5.27598136 Z" id="Path-6-Copy-4" fill="#9D9E9F" transform="translate(10.703569, 10.495353) rotate(-36.000000) translate(-10.703569, -10.495353) "></path>
                <path d="M12.2767537,0.344636089 C14.5927802,3.1734081 15.7024184,7.98697687 12.7086311,14.2923049 C14.8880984,14.3613638 15.6950193,15.0383881 17.0585223,15.784419 C17.3651769,8.2188176 15.6892153,2.8239346 12.2767537,0.344636089 Z" id="Path-6-Copy-5" fill="#9D9E9F" transform="translate(14.685482, 8.064528) rotate(-36.000000) translate(-14.685482, -8.064528) "></path>
                <path d="M19.3457657,3.63800043 C19.4920501,4.93797472 20.7029493,8.16946185 19.3457657,11.0278772 C20.3337909,11.0591839 20.699595,11.3661016 21.3177164,11.7043023 C21.4567332,8.27456298 20.2230993,5.62355462 19.3457657,3.63800043 Z" id="Path-6-Copy-6" fill="#9D9E9F" transform="translate(20.337139, 7.671151) scale(-1, 1) rotate(2.000000) translate(-20.337139, -7.671151) "></path>
                <path d="M73.3789274,3.53984364 C101.038526,3.53984364 124.241308,7.38424228 142.987713,15.1013016 C144.166263,15.5864583 144.72837,16.9351596 144.243213,18.1137102 C143.758057,19.2922608 142.409355,19.8543676 141.230805,19.3692108 C123.092898,11.9026431 100.475459,8.15522826 73.3789274,8.15522826 C46.2888958,8.15522826 23.9475383,11.900936 6.35752271,19.3598293 C5.18415339,19.8573863 3.82959993,19.3095323 3.33204286,18.136163 C2.8344858,16.9627936 3.38233988,15.6082402 4.55570919,15.1106831 C22.7726459,7.38594938 45.7128294,3.53984364 73.3789274,3.53984364 Z" id="Path-2" fill="#9D9E9F" fill-rule="nonzero"></path>
            </g>
        </g>
    </g>
</svg>